<?xml version="1.0" encoding="iso-8859-1"?>
<!-- Generator: Adobe Illustrator 19.0.0, SVG Export Plug-In . SVG Version: 6.00 Build 0)  -->
<svg version="1.1" id="Layer_1" xmlns="http://www.w3.org/2000/svg" xmlns:xlink="http://www.w3.org/1999/xlink" x="0px" y="0px"
	 viewBox="0 0 512.258 512.258" style="enable-background:new 0 0 512.258 512.258;" xml:space="preserve">
<g transform="translate(1 1)">
	<path style="fill:#FFE100;" d="M436.866,70.435c0,0-30.72-15.36-65.707,28.16c-9.387-5.973-19.627-11.093-29.013-15.36l0,0
		c-12.8-5.12-26.453-8.533-37.547-11.093c0,0-24.747-3.413-48.64-3.413s-48.64,3.413-48.64,3.413
		c-20.48,4.267-44.373,11.947-67.413,26.453c-34.987-42.667-65.707-28.16-65.707-28.16c-82.773,31.573-69.973,163.84-58.027,132.267
		s29.013-75.947,68.267-88.747c10.24-3.413,20.48,2.56,26.453,8.533c-24.747,28.16-43.52,69.973-43.52,133.12
		c0,177.493,142.507,187.733,179.2,187.733h17.067c36.693,0,179.2-10.24,179.2-187.733c0-63.147-18.773-104.96-43.52-133.12
		c6.827-5.973,16.213-12.8,26.453-8.533c39.253,13.653,56.32,58.027,68.267,88.747C505.986,234.275,518.786,102.008,436.866,70.435
		L436.866,70.435z"/>
	<g>
		<path style="fill:#FFA800;" d="M436.866,70.435c0,0-11.093-5.12-27.307-0.853c0.853,0,1.707,0.853,1.707,0.853
			c40.107,15.36,57.173,55.467,63.147,88.747c8.533,14.507,14.507,30.72,19.627,43.52
			C505.986,234.275,518.786,102.008,436.866,70.435"/>
		<path style="fill:#FFA800;" d="M406.999,116.515c-2.56-0.853-4.267-1.707-6.827-2.56c-10.24-3.413-20.48,2.56-26.453,8.533
			c25.6,28.16,43.52,69.973,43.52,133.12c0,171.52-132.267,187.733-174.933,187.733c1.707,0,2.56,0,4.267,0h17.067
			c36.693,0,179.2-10.24,179.2-187.733c0-63.147-18.773-104.96-43.52-133.12C401.026,119.928,404.439,118.221,406.999,116.515"/>
	</g>
	<g>
		<path style="fill:#FFFFFF;" d="M73.346,70.435c0,0,11.093-5.12,27.307-0.853c-0.853,0-1.707,0.853-1.707,0.853
			c-40.107,15.36-57.173,55.467-63.147,88.747c-8.533,14.507-14.507,30.72-19.627,43.52C4.226,234.275-8.574,102.008,73.346,70.435"
			/>
		<path style="fill:#FFFFFF;" d="M103.213,116.515c2.56-0.853,4.267-1.707,6.827-2.56c10.24-3.413,20.48,2.56,26.453,8.533
			c-24.747,28.16-43.52,69.973-43.52,133.12c0,171.52,132.267,187.733,174.933,187.733c-1.707,0-2.56,0-4.267,0h-17.067
			c-36.693,0-179.2-10.24-179.2-187.733c0-63.147,18.773-104.96,43.52-133.12C109.186,120.781,105.773,118.221,103.213,116.515"/>
	</g>
	<g>
		<path style="fill:#FDCC00;" d="M84.439,113.955c-14.507,5.12-26.453,14.507-35.84,25.6l29.867,39.253
			c5.12-16.213,11.947-29.867,20.48-41.813l0,0c1.707-2.56,3.413-4.267,5.12-6.827c0.853-0.853,0.853-0.853,1.707-1.707
			c1.707-2.56,3.413-4.267,5.973-6.827C104.919,116.515,94.679,109.688,84.439,113.955"/>
		<path style="fill:#FDCC00;" d="M425.773,113.955c14.507,5.12,26.453,14.507,35.84,26.453l-29.867,39.253
			c-5.12-16.213-11.947-29.867-20.48-41.813l0,0c-1.707-2.56-3.413-4.267-5.12-6.827c-0.853-0.853-0.853-0.853-1.707-1.707
			c-1.707-2.56-3.413-4.267-5.973-6.827C405.293,116.515,415.533,109.688,425.773,113.955"/>
	</g>
	<g>
		<path style="fill:#E4667F;" d="M263.639,323.875h-17.067c-23.893,0-42.667-19.627-42.667-42.667l0,0
			c0-23.893,19.627-42.667,42.667-42.667h17.067c23.893,0,42.667,19.627,42.667,42.667l0,0
			C306.306,305.101,287.533,323.875,263.639,323.875"/>
		<path style="fill:#E4667F;" d="M203.906,178.808c0,14.507-11.093,25.6-25.6,25.6s-25.6-11.093-25.6-25.6s11.093-25.6,25.6-25.6
			S203.906,164.301,203.906,178.808"/>
		<path style="fill:#E4667F;" d="M340.439,178.808c0,14.507-11.093,25.6-25.6,25.6s-25.6-11.093-25.6-25.6s11.093-25.6,25.6-25.6
			S340.439,164.301,340.439,178.808"/>
	</g>
	<path d="M264.493,451.875h-19.627c-18.773,0-65.707-2.56-108.373-29.013c-51.2-33.28-77.653-89.6-77.653-167.253
		c0-54.613,13.653-98.987,40.107-131.413c-3.413-2.56-7.68-3.413-11.947-1.707c-35.84,11.947-52.907,56.32-63.147,82.773
		c-2.56,6.827-6.827,10.24-11.947,10.24c-5.973,0-10.24-5.12-11.947-14.507c-4.267-26.453,3.413-112.64,70.827-138.24
		c0,0,34.133-16.213,70.827,24.747c18.773-11.093,40.107-19.627,64-23.893c1.707,0,25.6-4.267,50.347-4.267
		s48.64,3.413,49.493,3.413c13.653,2.56,27.307,6.827,39.253,11.947l0,0c8.533,3.413,17.067,7.68,24.747,11.947
		c36.693-40.96,69.12-25.6,70.827-24.747c67.413,25.6,74.24,111.787,69.973,138.24c-1.707,9.387-5.973,14.507-11.947,14.507l0,0
		c-5.12,0-9.387-3.413-11.947-10.24c-10.24-26.453-26.453-71.68-63.147-83.627c-3.413-0.853-7.68,0-11.947,2.56
		c26.453,33.28,40.107,76.8,40.107,131.413C451.373,442.488,296.066,451.875,264.493,451.875z M263.639,434.808h0.853
		c40.107,0,169.813-12.8,169.813-179.2c0-53.76-13.653-96.427-41.813-127.147c-3.413-3.413-2.56-8.533,0.853-11.947
		c11.093-11.093,23.893-14.507,34.987-11.093c34.987,11.947,53.76,45.227,65.707,73.387c-0.853-12.8-3.413-28.16-9.387-44.373
		c-6.827-19.627-22.187-45.227-51.2-56.32c-1.707-0.853-27.307-11.093-56.32,25.6c-2.56,3.413-7.68,4.267-11.093,1.707
		c-8.533-5.973-17.92-10.24-27.307-14.507l0,0c-11.093-4.267-23.04-8.533-35.84-11.093l0,0c0,0-23.893-3.413-46.933-3.413
		s-46.933,3.413-46.933,3.413c-24.747,5.12-46.933,13.653-64.853,25.6c-3.413,2.56-8.533,1.707-11.093-1.707
		c-18.773-22.187-34.987-27.307-45.227-27.307c-6.827,0-10.24,1.707-10.24,1.707c-29.867,11.947-45.227,37.547-52.053,56.32
		c-5.973,16.213-8.533,32.427-9.387,44.373c11.947-28.16,30.72-61.44,65.707-73.387c11.093-4.267,23.893,0,34.987,10.24
		c3.413,3.413,3.413,8.533,0.853,11.947c-28.16,30.72-41.813,73.387-41.813,128c0,166.4,129.707,179.2,169.813,179.2
		L263.639,434.808L263.639,434.808z"/>
	<path d="M78.466,188.195c-2.56,0-5.12-0.853-6.827-3.413l-29.867-40.107c-2.56-2.56-2.56-6.827,0-10.24
		c11.947-13.653,24.747-23.893,40.107-29.013c11.093-4.267,23.893,0,34.987,11.093c3.413,3.413,3.413,8.533,0.853,11.947
		c-1.707,1.707-3.413,4.267-5.12,5.973l-1.707,1.707c-1.707,2.56-3.413,4.267-5.12,6.827c-8.533,11.947-14.507,25.6-19.627,40.107
		c-0.853,3.413-3.413,5.12-6.827,5.973C79.319,188.195,79.319,188.195,78.466,188.195z M59.693,140.408l16.213,21.333
		c4.267-10.24,10.24-20.48,16.213-29.013c1.707-2.56,3.413-5.12,5.12-7.68l1.707-1.707c-4.267-2.56-8.533-3.413-11.947-1.707
		C76.759,125.048,68.226,131.021,59.693,140.408z"/>
	<path d="M431.746,188.195c-0.853,0-0.853,0-1.707,0c-3.413-0.853-5.973-2.56-6.827-5.973c-5.12-14.507-11.093-28.16-19.627-39.253
		c-1.707-2.56-3.413-4.267-5.12-6.827l-1.707-1.707c-1.707-2.56-3.413-4.267-5.12-5.973c-3.413-3.413-2.56-8.533,0.853-11.947
		c11.947-11.093,24.747-14.507,35.84-11.093c15.36,5.12,28.16,15.36,40.107,29.013c2.56,3.413,2.56,7.68,0,10.24l-29.867,39.253
		C436.866,186.488,434.306,188.195,431.746,188.195z M411.266,124.195l0.853,1.707c2.56,2.56,4.267,5.12,5.12,7.68
		c5.973,9.387,11.947,18.773,16.213,29.867l16.213-22.187c-8.533-9.387-17.92-15.36-28.16-18.773
		C419.799,120.781,415.533,121.635,411.266,124.195z"/>
	<path d="M263.639,332.408h-17.067c-28.16,0-51.2-23.04-51.2-51.2s23.04-51.2,51.2-51.2h17.067c28.16,0,51.2,23.04,51.2,51.2
		S291.799,332.408,263.639,332.408z M246.573,247.075c-18.773,0-34.133,15.36-34.133,34.133s15.36,34.133,34.133,34.133h17.067
		c18.773,0,34.133-15.36,34.133-34.133s-15.36-34.133-34.133-34.133L246.573,247.075L246.573,247.075z"/>
	<path d="M229.506,281.208c0,5.12,3.413,8.533,8.533,8.533c5.12,0,8.533-3.413,8.533-8.533s-3.413-8.533-8.533-8.533
		C232.919,272.675,229.506,276.088,229.506,281.208"/>
	<path d="M263.639,281.208c0,5.12,3.413,8.533,8.533,8.533s8.533-3.413,8.533-8.533s-3.413-8.533-8.533-8.533
		C267.053,272.675,263.639,276.088,263.639,281.208"/>
	<path d="M178.306,212.941c-18.773,0-34.133-15.36-34.133-34.133s15.36-34.133,34.133-34.133s34.133,15.36,34.133,34.133
		S197.079,212.941,178.306,212.941z M178.306,161.741c-9.387,0-17.067,7.68-17.067,17.067s7.68,17.067,17.067,17.067
		c9.387,0,17.067-7.68,17.067-17.067S187.693,161.741,178.306,161.741z"/>
	<path d="M314.839,212.941c-18.773,0-34.133-15.36-34.133-34.133s15.36-34.133,34.133-34.133s34.133,15.36,34.133,34.133
		S333.613,212.941,314.839,212.941z M314.839,161.741c-9.387,0-17.067,7.68-17.067,17.067s7.68,17.067,17.067,17.067
		s17.067-7.68,17.067-17.067S324.226,161.741,314.839,161.741z"/>
	<path d="M255.106,392.141c-45.227,0-86.187-23.893-110.08-64c-2.56-4.267-0.853-9.387,3.413-11.947
		c4.267-2.56,9.387-0.853,11.947,3.413c19.627,34.987,55.467,55.467,94.72,55.467s75.093-20.48,94.72-55.467
		c2.56-4.267,7.68-5.12,11.947-3.413c4.267,2.56,5.12,7.68,3.413,11.947C341.293,368.248,300.333,392.141,255.106,392.141z"/>
</g>
<g>
</g>
<g>
</g>
<g>
</g>
<g>
</g>
<g>
</g>
<g>
</g>
<g>
</g>
<g>
</g>
<g>
</g>
<g>
</g>
<g>
</g>
<g>
</g>
<g>
</g>
<g>
</g>
<g>
</g>
</svg>
